<?xml version="1.0" encoding="UTF-8"?>
<svg width="80" height="80" viewBox="0 0 80 80" xmlns="http://www.w3.org/2000/svg">
  <circle cx="40" cy="40" r="38" fill="white" />
  <path d="M60.64 40.2045C60.64 38.7045 60.5 37.2227 60.24 35.8045H40V43.4591H51.84C51.36 46.4591 49.84 49.0227 47.48 50.7045V56.1045H54.64C58.48 52.6227 60.64 46.9045 60.64 40.2045Z" fill="#4285F4" />
  <path d="M39.9998 61.9998C45.9998 61.9998 50.9998 59.9998 54.6398 56.0998L47.4798 50.6998C45.6398 51.8998 43.1198 52.5998 39.9998 52.5998C34.3198 52.5998 29.4398 48.7598 27.5998 43.5998H20.1598V49.1598C23.7598 56.5598 31.3198 61.9998 39.9998 61.9998Z" fill="#34A853" />
  <path d="M27.6 43.5996C26.88 41.5996 26.48 39.3996 26.48 36.9996C26.48 34.5996 26.88 32.3996 27.6 30.3996V24.8396H20.16C18.44 28.4396 17.44 32.5996 17.44 36.9996C17.44 41.3996 18.44 45.5596 20.16 49.1596L27.6 43.5996Z" fill="#FBBC05" />
  <path d="M39.9998 21.3999C42.9598 21.3999 45.5998 22.3999 47.7198 24.3999L53.9998 18.0799C50.9998 15.3599 45.9998 13.5999 39.9998 13.5999C31.3198 13.5999 23.7598 18.9599 20.1598 26.3999L27.5998 31.9599C29.4398 26.7999 34.3198 21.3999 39.9998 21.3999Z" fill="#EA4335" />
</svg>