<?xml version="1.0" encoding="UTF-8"?>
<svg width="80" height="80" viewBox="0 0 80 80" xmlns="http://www.w3.org/2000/svg">
  <circle cx="40" cy="40" r="38" fill="#0a66c2" />
  <g transform="translate(16, 16)">
    <path d="M44.8571 46H36.5714V33.8863C36.5714 31.0351 36.5143 27.3249 32.5143 27.3249C28.4429 27.3249 27.8 30.4626 27.8 33.7037V46H19.5143V20.4351H27.4V24.0937H27.5143C28.5714 22.0237 31.2 19.8317 35.1143 19.8317C43.5143 19.8317 44.8571 25.0631 44.8571 31.7583V46Z" fill="white" />
    <path d="M12.0571 16.7763C9.48571 16.7763 7.42857 14.6991 7.42857 12.1477C7.42857 9.59646 9.48571 7.51917 12.0571 7.51917C14.6286 7.51917 16.6857 9.59646 16.6857 12.1477C16.6857 14.6991 14.6286 16.7763 12.0571 16.7763Z" fill="white" />
    <path d="M16.2286 46H7.88571V20.4351H16.2286V46Z" fill="white" />
  </g>
</svg>