<?xml version="1.0" encoding="UTF-8"?>
<svg width="80" height="80" viewBox="0 0 80 80" xmlns="http://www.w3.org/2000/svg">
  <defs>
    <linearGradient id="monetizeGradient" x1="0%" y1="0%" x2="100%" y2="100%">
      <stop offset="0%" stop-color="#3a86ff" />
      <stop offset="100%" stop-color="#4d21fc" />
    </linearGradient>
  </defs>
  <circle cx="40" cy="40" r="36" fill="white" stroke="url(#monetizeGradient)" stroke-width="2" />
  <g transform="translate(25, 20)">
    <!-- Dollar sign -->
    <path d="M15,0 L15,40" stroke="url(#monetizeGradient)" stroke-width="3" fill="none" stroke-linecap="round" />
    <path d="M7,10 C0,10 0,20 7,20 L24,20 C30,20 30,30 24,30 L6,30" stroke="url(#monetizeGradient)" stroke-width="3" fill="none" stroke-linecap="round" />
  </g>
  <g transform="translate(15, 15)">
    <!-- Chart lines -->
    <path d="M5,35 L5,45 L55,45" stroke="url(#monetizeGradient)" stroke-width="2" fill="none" stroke-linecap="round" />
    <path d="M10,40 L15,35 L20,37 L25,34 L30,32 L35,30 L40,25 L45,28 L50,20" stroke="url(#monetizeGradient)" stroke-width="2" fill="none" stroke-linecap="round" />
    <circle cx="10" cy="40" r="2" fill="url(#monetizeGradient)" />
    <circle cx="15" cy="35" r="2" fill="url(#monetizeGradient)" />
    <circle cx="20" cy="37" r="2" fill="url(#monetizeGradient)" />
    <circle cx="25" cy="34" r="2" fill="url(#monetizeGradient)" />
    <circle cx="30" cy="32" r="2" fill="url(#monetizeGradient)" />
    <circle cx="35" cy="30" r="2" fill="url(#monetizeGradient)" />
    <circle cx="40" cy="25" r="2" fill="url(#monetizeGradient)" />
    <circle cx="45" cy="28" r="2" fill="url(#monetizeGradient)" />
    <circle cx="50" cy="20" r="2" fill="url(#monetizeGradient)" />
  </g>
</svg>