<?xml version="1.0" encoding="UTF-8"?>
<svg width="80" height="80" viewBox="0 0 80 80" xmlns="http://www.w3.org/2000/svg">
  <circle cx="40" cy="40" r="38" fill="#1DA1F2" />
  <path d="M62.1818 28.9091C60.5455 29.7273 58.7273 30.1818 56.9091 30.5455C58.8182 29.3636 60.1818 27.5455 60.9091 25.2727C59.0909 26.3636 57.0909 27.1818 54.9091 27.6364C53.0909 25.7273 50.7273 24.5455 48.0909 24.5455C42.9091 24.5455 38.7273 28.7273 38.7273 33.9091C38.7273 34.7273 38.8182 35.5455 38.9091 36.3636C31.2727 35.9091 24.3636 32.1818 19.8182 26.6364C18.9091 28.1818 18.3636 29.3636 18.3636 31.0909C18.3636 33.9091 19.9091 36.5455 22.2727 38C20.6364 38 19.1818 37.5455 17.9091 36.9091C17.9091 36.9091 17.9091 37 17.9091 37.0909C17.9091 41.6364 21.0909 45.3636 25.2727 46.2727C24.3636 46.5455 23.5455 46.6364 22.6364 46.6364C22.0909 46.6364 21.4545 46.5455 20.9091 46.4545C22.0909 50.0909 25.5455 52.7273 29.5455 52.8182C26.3636 55.2727 22.2727 56.7273 17.8182 56.7273C16.9091 56.7273 16.0909 56.6364 15.2727 56.5455C19.2727 59.1818 24.0909 60.6364 29.2727 60.6364C48.0909 60.6364 58.0909 45.8182 58.0909 32.9091C58.0909 32.4545 58.0909 32 58.0909 31.5455C60.0909 30.3636 61.7273 28.7273 62.9091 26.9091L62.1818 28.9091Z" fill="white" />
</svg>